<svg xmlns="http://www.w3.org/2000/svg" width="60" height="200" viewBox="0 0 60 200">
  <g fill="none" stroke="#c9a87c" stroke-width="1.2" opacity="0.2">
    <!-- 竹竿 -->
    <line x1="20" y1="10" x2="20" y2="190" stroke-width="2.5"/>
    <!-- 竹节 -->
    <line x1="14" y1="40" x2="26" y2="40"/>
    <line x1="14" y1="80" x2="26" y2="80"/>
    <line x1="14" y1="120" x2="26" y2="120"/>
    <line x1="14" y1="160" x2="26" y2="160"/>
    <!-- 竹叶组1 -->
    <path d="M20 50 Q35 35 45 45"/>
    <path d="M20 50 Q30 30 38 38"/>
    <path d="M20 55 Q10 40 5 48"/>
    <!-- 竹叶组2 -->
    <path d="M20 90 Q38 78 48 85"/>
    <path d="M20 92 Q32 75 40 80"/>
    <path d="M20 95 Q8 82 2 90"/>
    <!-- 竹叶组3 -->
    <path d="M20 130 Q36 118 46 125"/>
    <path d="M20 132 Q30 115 38 120"/>
    <path d="M20 135 Q10 122 4 130"/>
    <!-- 小分枝 -->
    <path d="M20 100 Q32 105 38 98" stroke-width="0.8"/>
    <path d="M20 140 Q28 145 34 138" stroke-width="0.8"/>
  </g>
</svg>